
<svg version="1.0" xmlns="http://www.w3.org/2000/svg"
 width="300.000000pt" height="300.000000pt" viewBox="0 0 300.000000 300.000000"
 preserveAspectRatio="xMidYMid meet">
<metadata>
Created by potrace 1.10, written by Peter Selinger 2001-2011
</metadata>
<g transform="translate(0.000000,300.000000) scale(0.100000,-0.100000)"
fill="#000000" stroke="none">
<path d="M1229 2406 c-295 -62 -528 -280 -611 -573 -32 -111 -32 -295 0 -406
94 -330 370 -557 708 -583 149 -12 335 32 456 106 l51 32 196 -195 c124 -123
206 -198 224 -202 99 -25 190 80 146 168 -6 12 -96 108 -200 212 l-188 190 39
59 c22 33 53 97 70 143 109 303 33 627 -199 846 -88 83 -181 138 -301 178 -79
26 -113 32 -210 35 -73 2 -139 -1 -181 -10z m327 -46 c341 -87 574 -383 574
-730 0 -399 -308 -725 -706 -747 -119 -7 -208 7 -313 47 -408 158 -595 632
-406 1026 101 210 306 368 536 413 84 17 231 12 315 -9z m627 -1428 c176 -177
187 -190 187 -226 0 -51 -35 -86 -86 -86 -36 0 -49 11 -230 191 l-192 191 61
59 c34 32 64 58 67 59 3 0 90 -85 193 -188z"/>
<path d="M1200 2267 c-118 -36 -196 -82 -285 -172 -131 -131 -195 -283 -195
-465 0 -182 63 -333 195 -465 131 -131 283 -195 465 -195 182 0 334 64 466
195 131 130 194 281 194 465 0 52 -7 124 -15 159 -41 173 -184 351 -345 429
-114 56 -183 72 -305 71 -73 0 -120 -6 -175 -22z m355 -38 c166 -48 312 -170
383 -321 52 -108 66 -172 65 -288 -1 -113 -32 -223 -89 -313 -36 -58 -54 -65
-54 -21 0 39 -25 88 -59 117 -20 16 -79 42 -152 65 l-119 38 30 29 c42 40 87
136 100 213 20 117 -20 235 -106 311 -146 128 -362 65 -435 -128 -31 -85 -25
-204 17 -291 17 -36 45 -82 62 -101 l31 -35 -128 -42 c-156 -52 -185 -77 -200
-181 l-7 -46 -37 56 c-62 92 -90 186 -95 314 -3 81 0 127 13 175 89 346 438
547 780 449z m-56 -176 c122 -75 163 -246 95 -393 -35 -76 -67 -115 -120 -146
-53 -31 -123 -35 -172 -10 -78 41 -143 141 -163 253 -24 138 56 284 177 323
50 16 132 4 183 -27z m-215 -637 l30 -55 -13 -138 c-7 -76 -15 -154 -18 -174
l-5 -37 -57 15 c-95 25 -230 102 -284 161 -16 18 -16 24 -3 81 19 81 36 106
88 125 126 47 205 74 218 75 9 0 28 -23 44 -53z m363 13 c132 -44 155 -60 173
-128 23 -89 20 -100 -45 -153 -33 -27 -87 -62 -120 -78 -63 -30 -175 -63 -175
-52 0 4 -7 82 -16 174 l-17 167 29 56 c16 30 33 55 39 55 5 0 65 -18 132 -41z
m-215 -14 l-26 -40 18 -178 c10 -98 16 -181 13 -183 -7 -7 -107 -7 -114 -1 -2
3 3 86 12 185 17 177 17 181 -2 209 -11 15 -22 33 -25 38 -4 6 23 10 72 10
l77 0 -25 -40z"/>
</g>
</svg>
